<?xml version="1.0" standalone="no"?><!DOCTYPE svg PUBLIC "-//W3C//DTD SVG 1.1//EN" "http://www.w3.org/Graphics/SVG/1.1/DTD/svg11.dtd"><svg t="1779253672196" class="icon" viewBox="0 0 1024 1024" version="1.1" xmlns="http://www.w3.org/2000/svg" p-id="5135" xmlns:xlink="http://www.w3.org/1999/xlink" width="200" height="200"><path d="M824.8064 319.5136H199.1936c-13.2864 0-24.064 10.7648-24.064 24.064V632.32c0 13.2736 10.7776 24.064 24.064 24.064h625.6c13.2864 0 24.064-10.7904 24.064-24.064V343.5648c0-13.2992-10.7648-24.0512-24.0512-24.0512z" fill="#B3B3B3" p-id="5136"></path><path d="M632.3072 223.2576H199.1936c-13.2864 0-24.064 10.7648-24.064 24.064v144.3712c0 13.2736 10.7776 24.064 24.064 24.064h433.1136c13.2864 0 24.064-10.7904 24.064-24.064V247.3216c0-13.2992-10.7776-24.064-24.064-24.064z" fill="#4D4D4D" p-id="5137"></path><path d="M632.3072 608.2432H199.1936c-13.2864 0-24.064 10.7648-24.064 24.064v144.3712c0 13.2736 10.7776 24.064 24.064 24.064h433.1136c13.2864 0 24.064-10.7904 24.064-24.064V632.3072c0-13.2992-10.7776-24.064-24.064-24.064z" fill="#999999" p-id="5138"></path><path d="M848.8576 367.6288H175.1424c-26.5856 0-48.128 21.5424-48.128 48.128v288.7424c0 26.5728 21.5296 48.128 48.128 48.128v-48.128c0-26.5728 21.5424-48.128 48.128-48.128H608.256c26.5728 0 48.128 21.5424 48.128 48.128v48.128h192.4864c26.5728 0 48.128-21.5424 48.128-48.128V415.7568c-0.0128-26.5728-21.5552-48.128-48.1408-48.128z" fill="#E6E6E6" p-id="5139"></path><path d="M776.6784 487.936m-24.064 0a24.064 24.064 0 1 0 48.128 0 24.064 24.064 0 1 0-48.128 0Z" fill="#808080" p-id="5140"></path><path d="M680.4352 487.936m-24.064 0a24.064 24.064 0 1 0 48.128 0 24.064 24.064 0 1 0-48.128 0Z" fill="#88C057" p-id="5141"></path></svg>